<?xml version="1.0" encoding="iso-8859-1"?>
<!-- Generator: Adobe Illustrator 15.1.0, SVG Export Plug-In . SVG Version: 6.00 Build 0)  -->
<!DOCTYPE svg PUBLIC "-//W3C//DTD SVG 1.1//EN" "http://www.w3.org/Graphics/SVG/1.1/DTD/svg11.dtd">
<svg version="1.1" xmlns="http://www.w3.org/2000/svg" xmlns:xlink="http://www.w3.org/1999/xlink" x="0px" y="0px"
	 width="595.28px" height="841.89px" viewBox="0 0 595.28 841.89" style="enable-background:new 0 0 595.28 841.89;"
	 xml:space="preserve">
<g id="Calque_2" style="display:none;">
	<path style="display:inline;fill:none;stroke:#E20613;stroke-miterlimit:10;" d="M330.84,166.66l-87.39,20.83
		c0,0-5.58-25.18-3.43-27.92c2.15-2.74,83.59-21.12,84.87-20.26C326.17,140.17,330.84,166.66,330.84,166.66z"/>
	<path style="display:inline;fill:none;stroke:#E20613;stroke-miterlimit:10;" d="M340,183.33c-0.17,1.5-94.49,26.66-96.33,25
		s-4.13-19.52-3.65-20.02s3.43-0.82,3.43-0.82l87.39-20.83c0,0,2.65-0.95,4.16-0.99C336.12,166.12,340.17,181.83,340,183.33z"/>
	<path style="display:inline;fill:none;stroke:#E20613;stroke-miterlimit:10;" d="M425.67,197.33l-53.4,12.39l-143.6,33.32
		l-27.87,6.46l-1.7,0.39l-3.8,0.88l-0.97,0.23l0.85-0.73l3.21-2.79l1.33-1.15l43.95-38c1.84,1.66,96.16-23.5,96.33-25L425.67,197.33
		z"/>
	<path style="display:inline;fill:none;stroke:#E20613;stroke-miterlimit:10;" d="M375.5,292.25c-0.06-0.19-0.11-0.39-0.17-0.58"/>
	<path style="display:inline;fill:none;stroke:#E20613;stroke-miterlimit:10;" d="M375.5,292.25c4.65,3.68,9.5,4.75,9.5,4.75"/>
	<path style="display:inline;fill:none;stroke:#E20613;stroke-miterlimit:10;" d="M238.31,315.11c-4.9,6.29-9.64,10.56-9.64,10.56"
		/>
	<path style="display:inline;fill:none;stroke:#E20613;stroke-miterlimit:10;" d="M367.12,275.64c11.04,2.11,20.18,0.91,20.18,0.91"
		/>
	<path style="display:inline;fill:none;stroke:#E20613;stroke-miterlimit:10;" d="M246.33,281.62c-1.59-0.83-2.83-1.63-3.66-2.29"/>
	<path style="display:inline;fill:none;stroke:#E20613;stroke-miterlimit:10;" d="M336.82,369.61c-1.62,0.25-3.311,0.5-5.051,0.77
		c-10.029,1.56-21.539,3.46-31.409,5.12"/>
	<path style="display:inline;fill:none;stroke:#E20613;stroke-miterlimit:10;" d="M417.33,325.67C410,331,400.67,336,400.67,336
		l-13.37-59.45l-15.03-66.83l-143.6,33.32L227,332.02c0,0-10.17-5.19-21-4.02c-3.33,2.67,1.33,29.16,17.33,33.41
		c-9.66,27.92,11.34,35.92,11.34,35.92s0.78,1.12,2.17,2.91L277,379.5c0,0,2.22-0.39,5.92-1.03l1.51-0.26l10.28-1.8l5.29-0.93
		c9.97-1.66,21.55-3.55,31.65-5.1c1.779-0.27,3.51-0.53,5.17-0.78v0.01c0.02,0,0.04-0.01,0.06-0.01l0.061-0.01
		c3.819-0.58,7.31-1.08,10.25-1.47c4.359-0.58,7.529-0.91,8.81-0.87c7.5,0.25,30,27,41.25,38.25c-0.05,0.59-0.48,1.61-1.17,2.93
		c14.07-7.48,23.59-20.98,10.88-45.06C406.96,363.37,421,353.33,417.33,325.67z M310.224,370.379
		c-45.724,3.48-71.914-24.879-71.914-55.27c7.18-9.23,14.7-22.78,8.02-33.49c14.45,7.53,57.81,17.76,83.34-45.29
		c3.48,27.22,22.26,36.4,37.45,39.31c0.41,8.2,4.32,13.4,8.38,16.61C380.25,335.5,368.5,364.379,310.224,370.379z"/>
	<path style="display:inline;fill:none;stroke:#E20613;stroke-miterlimit:10;" d="M376.06,404l-2.71,11.76
		c-3.979,0.71-9.088,1.239-11.968,1.459L358,396.25L376.06,404z"/>
	<path style="display:inline;fill:none;stroke:#E20613;stroke-miterlimit:10;" d="M397.25,405.5c-0.05,0.59-0.48,1.61-1.17,2.93
		c-0.01,0.01-0.01,0.01-0.01,0.01c-3.74,7.15-15.42,23.71-15.42,23.71L380.39,432c-0.739-0.86-1.609-1.65-2.62-2.32
		c-2.239-1.489-4.76-2.17-7.14-2.09l2.72-11.83l2.71-11.76L358,396.25l3.38,20.97l0.37,2.28l-10.42,1.72l-4.14-53.1
		c4.359-0.58,7.529-0.91,8.81-0.87C363.5,367.5,386,394.25,397.25,405.5z"/>
	<path style="display:inline;fill:none;stroke:#E20613;stroke-miterlimit:10;" d="M253.73,417.23c7.25,5.33,15.61,8.8,23.27,5.44"/>
	<path style="display:inline;fill:none;stroke:#E20613;stroke-miterlimit:10;" d="M236.84,400.24l-28.09,14.5
		c3.26,2.71,5.33,6.79,5.33,11.35c0,0.76-0.06,1.5-0.17,2.23l39.82-11.09l23.27-6.48l1.5,22.5"/>
	<line style="display:inline;fill:none;stroke:#E20613;stroke-miterlimit:10;" x1="336.82" y1="369.61" x2="341.63" y2="422.82"/>
	<path style="display:inline;fill:none;stroke:#E20613;stroke-miterlimit:10;" d="M300,375.48c-0.05,0-0.1,0.01-0.15,0.02"/>
	<path style="display:inline;fill:none;stroke:#E20613;stroke-miterlimit:10;" d="M300.36,375.501c0,0,0.761,19.052,18.974,16.499
		s12.437-21.621,12.437-21.621"/>
	<path style="display:inline;fill:none;stroke:#E20613;stroke-miterlimit:10;" d="M354.35,435.62c0,4.08-3.3,7.38-7.369,7.38
		c-4.08,0-7.381-3.3-7.381-7.38c0-2.41,1.15-4.54,2.94-5.87c1.24-0.94,2.77-1.5,4.44-1.5c1.67,0,3.21,0.56,4.439,1.5
		C353.2,431.09,354.35,433.22,354.35,435.62z"/>
	<path style="display:inline;fill:none;stroke:#E20613;stroke-miterlimit:10;" d="M352,429.75h-0.58c-1.229-0.94-2.77-1.5-4.439-1.5
		c-1.671,0-3.2,0.56-4.44,1.5h-0.29l-0.5-5.63l-0.12-1.3l-4.75-53.22l0.061-0.01c3.819-0.58,7.31-1.08,10.25-1.47l4.14,53.1
		l0.12,1.5L352,429.75z"/>
	<path style="display:inline;fill:none;stroke:#E20613;stroke-miterlimit:10;" d="M301.86,443.83c0,4.08-3.3,7.38-7.37,7.38
		c-4.08,0-7.38-3.3-7.38-7.38c0-2.41,1.15-4.54,2.94-5.87c1.24-0.95,2.77-1.5,4.44-1.5c1.67,0,3.21,0.55,4.44,1.5
		C300.71,439.29,301.86,441.42,301.86,443.83z"/>
	<path style="display:inline;fill:none;stroke:#E20613;stroke-miterlimit:10;" d="M299.51,437.96h-0.58
		c-1.23-0.95-2.77-1.5-4.44-1.5c-1.67,0-3.2,0.55-4.44,1.5h-0.29l-0.5-5.63l-0.09-0.94l-0.03-0.359l-4.71-52.82l10.28-1.8
		l4.13,53.02l0.03,0.37l0.01,0.09l0.08,1.03L299.51,437.96z"/>
	<path style="display:inline;fill:none;stroke:#E20613;stroke-miterlimit:10;" d="M366.87,516.08l-23.69,9.229l-14.859-38.39
		c11.14-1.689,22.25-3.6,32.1-5.58L366.87,516.08z"/>
	<path style="display:inline;fill:none;stroke:#E20613;stroke-miterlimit:10;" d="M312.38,489.2l-9.66,35.76l-22.8-8.88l-0.74-0.29
		l2.81-23.16C290.61,491.89,301.19,490.69,312.38,489.2z"/>
	<path style="display:inline;fill:none;stroke:#E20613;stroke-miterlimit:10;" d="M392.67,572.4h-38.84l-15-45.4l4.35-1.69
		l23.69-9.229l6.63-2.58c0,0-2.17,35.07-3.5,44.5C380.33,559,392.67,572.4,392.67,572.4z"/>
	<path style="display:inline;fill:none;stroke:#E20613;stroke-miterlimit:10;" d="M307.96,527l-15,45.4h-38.84
		c0,0,12.34-13.4,22.67-14.4c-1.33-9.43-3.5-44.5-3.5-44.5l5.89,2.29l0.74,0.29l22.8,8.88l0.891,0.35L307.96,527z"/>
	<path style="display:inline;fill:none;stroke:#E20613;stroke-miterlimit:10;" d="M384.37,475.5c-6.04,1.93-14.4,3.92-23.95,5.84
		c-9.85,1.98-20.96,3.891-32.1,5.58c-5.36,0.82-10.721,1.58-15.94,2.28c-11.189,1.49-21.77,2.689-30.39,3.43
		c-9.43,0.82-16.52,1.09-19.49,0.62l16-60l5.89-1.14l4.78-0.721l0.09,0.94l0.5,5.63h0.29c-1.79,1.33-2.94,3.46-2.94,5.87
		c0,4.08,3.3,7.38,7.38,7.38c4.07,0,7.37-3.3,7.37-7.38c0-2.41-1.15-4.54-2.93-5.87h0.58l-0.55-7.04l-0.08-1.03l42.75-7.069
		l0.12,1.3l0.5,5.63h0.29c-1.79,1.33-2.94,3.46-2.94,5.87c0,4.08,3.301,7.38,7.381,7.38c4.069,0,7.369-3.3,7.369-7.38
		c0-2.4-1.149-4.53-2.93-5.87H352l-0.55-7.03l-0.12-1.5l10.42-1.72l0.68,1.63l3.141,7.58l0.12,0.29l8.069,19.41l5.73,13.8
		L384.37,475.5z"/>
	<path style="display:inline;fill:none;stroke:#E20613;stroke-miterlimit:10;" d="M301.86,443.83c0,4.08-3.3,7.38-7.37,7.38
		c-4.08,0-7.38-3.3-7.38-7.38c0-2.41,1.15-4.54,2.94-5.87c1.24-0.95,2.77-1.5,4.44-1.5c1.67,0,3.21,0.55,4.44,1.5
		C300.71,439.29,301.86,441.42,301.86,443.83z"/>
	<path style="display:inline;fill:none;stroke:#E20613;stroke-miterlimit:10;" d="M214.08,426.09c0,0.76-0.06,1.5-0.17,2.23
		c-0.69,4.55-3.45,8.42-7.31,10.609c-2.15,1.21-4.63,1.91-7.27,1.91c-1.74,0-3.4-0.3-4.95-0.85c-5.71-2.04-9.8-7.49-9.8-13.9
		c0-4.5,2.02-8.54,5.21-11.24c2.57-2.19,5.9-3.51,9.54-3.51c0.99,0,1.96,0.1,2.9,0.29c2.45,0.48,4.68,1.58,6.52,3.11
		C212.01,417.45,214.08,421.53,214.08,426.09z"/>
	<path style="display:inline;fill:none;stroke:#E20613;stroke-miterlimit:10;" d="M202.23,411.63c-0.94-0.19-1.91-0.29-2.9-0.29
		c-3.64,0-6.97,1.32-9.54,3.51l-14.24-77.93l14.11-3.89L202.23,411.63z"/>
	<path style="display:inline;fill:none;stroke:#E20613;stroke-miterlimit:10;" d="M233.2,572.7h-9.5l-29.32-132.71
		c1.55,0.55,3.21,0.85,4.95,0.85c2.64,0,5.12-0.7,7.27-1.91L233.2,572.7z"/>
	<path style="display:inline;fill:none;stroke:#E20613;stroke-miterlimit:10;" d="M193.33,332.02l-3.67,1.01l-14.11,3.89l-2.72,0.75
		l-3.9-21.31c4.85-0.59,9.91-1.61,14.73-3.01c1.29-0.38,2.57-0.78,3.82-1.22L193.33,332.02z"/>
	<g style="display:inline;">
		<path style="fill:none;stroke:#E20613;stroke-miterlimit:10;" d="M201.93,259.86l-2.32-8.17l0.03-0.01
			C200.42,254.35,201.19,257.1,201.93,259.86z"/>
		<path style="fill:none;stroke:#E20613;stroke-miterlimit:10;" d="M208.18,296.24c-2.26,7.07-10.64,12.4-20.7,15.89
			c-1.25,0.44-2.53,0.84-3.82,1.22c-4.82,1.4-9.88,2.42-14.73,3.01c-1.33,0.17-2.65,0.3-3.94,0.4c-10.26,0.82-18.98-0.32-21.57-3.52
			c-6.99-8.62-12.34-73.07-9.98-73.47c2.35-0.4,14.11,62.13,17.35,65.34c3.24,3.21,15.8,0.42,17.93-2.66
			c2.13-3.09-12.73-71.76-8.54-72.09c4.19-0.32,16.1,66.56,20.5,69.08c4.4,2.51,15.76-1.83,18.59-9.72
			c1.46-4.06-1.8-20.48-4.9-35.62c-0.09-0.46-0.19-0.92-0.28-1.38c-2.68-13.09-5.32-26.1-4.04-26.65c1.11-0.47,4.65,9.14,8.34,21.41
			l-3.21,2.79l-0.85,0.73l0.97-0.23l3.8-0.88l0.51,1.8l2.32,8.17C206.46,276.6,210.08,293.78,208.18,296.24z"/>
	</g>
	<circle style="display:inline;fill:none;stroke:#E20613;stroke-miterlimit:10;" cx="264.5" cy="309.146" r="5.5"/>
	<path style="display:inline;fill:none;stroke:#E20613;stroke-miterlimit:10;" d="M262.5,334c0,0,67.833-9,95.406-15.333
		c0.761,15.667-9.055,33.5-43.072,38.167C282.187,361.312,268,351.312,262.5,334z"/>
	<path style="display:inline;fill:none;stroke:#E20613;stroke-miterlimit:10;" d="M381.63,444.28c-1.75,2.62-4.7,4.05-7.87,4.13
		L365.69,429c1.46-0.88,3.159-1.36,4.939-1.41c2.38-0.08,4.9,0.601,7.14,2.09c1.011,0.67,1.881,1.46,2.62,2.32
		C383.46,435.6,384.11,440.57,381.63,444.28z"/>
	<path style="display:inline;fill:none;stroke:#E20613;stroke-miterlimit:10;" d="M352.667,294.625c3.833-1.125,7,0.709,7.5,4.542
		c0.036,2.789-0.959,5.208-3.75,6c-2.874,0.625-6.333-0.708-7.291-3.958C347.96,296.979,351.81,294.872,352.667,294.625z"/>
</g>
<g id="trac&#xE9;" style="display:none;">
	<path style="display:inline;fill:none;stroke:#E20613;stroke-miterlimit:10;" d="M375.5,292.25c4.65,3.68,9.5,4.75,9.5,4.75"/>
	<path style="display:inline;fill:none;stroke:#E20613;stroke-miterlimit:10;" d="M238.31,315.11c-4.9,6.29-9.64,10.56-9.64,10.56"
		/>
	<path style="display:inline;fill:none;stroke:#E20613;stroke-miterlimit:10;" d="M367.12,275.64c11.04,2.11,20.18,0.91,20.18,0.91"
		/>
	<path style="display:inline;fill:none;stroke:#E20613;stroke-miterlimit:10;" d="M246.33,281.62c-1.59-0.83-2.83-1.63-3.66-2.29"/>
	<path style="display:inline;fill:none;stroke:#E20613;stroke-miterlimit:10;" d="M336.82,369.61c-1.62,0.25-3.311,0.5-5.051,0.77"
		/>
	<path style="display:inline;fill:none;stroke:#E20613;stroke-miterlimit:10;" d="M300,375.48c-0.05,0-0.1,0.01-0.15,0.02"/>
</g>
<g id="formes">
	<path style="fill:#7B4879;" d="M384.37,475.5c-6.04,1.93-14.4,3.92-23.95,5.84c-9.85,1.98-20.96,3.891-32.1,5.58
		c-5.36,0.82-10.721,1.58-15.94,2.28c-11.189,1.49-21.77,2.689-30.39,3.43c-9.43,0.82-16.52,1.09-19.49,0.62l16-60l5.89-1.14
		l4.78-0.721l0.09,0.94l0.5,5.63h0.29c-1.79,1.33-2.94,3.46-2.94,5.87c0,4.08,3.3,7.38,7.38,7.38c4.07,0,7.37-3.3,7.37-7.38
		c0-2.41-1.15-4.54-2.93-5.87h0.58l-0.55-7.04l-0.08-1.03l42.75-7.069l0.12,1.3l0.5,5.63h0.29c-1.79,1.33-2.94,3.46-2.94,5.87
		c0,4.08,3.301,7.38,7.381,7.38c4.069,0,7.369-3.3,7.369-7.38c0-2.4-1.149-4.53-2.93-5.87H352l-0.55-7.03l-0.12-1.5l10.42-1.72
		l0.68,1.63l3.141,7.58l0.12,0.29l8.069,19.41l5.73,13.8L384.37,475.5z"/>
	<g>
		<path style="fill:#7B4879;" d="M392.67,572.4h-38.84l-15-45.4l4.35-1.69l23.69-9.229l6.63-2.58c0,0-2.17,35.07-3.5,44.5
			C380.33,559,392.67,572.4,392.67,572.4z"/>
		<path style="fill:#7B4879;" d="M307.96,527l-15,45.4h-38.84c0,0,12.34-13.4,22.67-14.4c-1.33-9.43-3.5-44.5-3.5-44.5l5.89,2.29
			l0.74,0.29l22.8,8.88l0.891,0.35L307.96,527z"/>
	</g>
	<g>
		<path style="fill:#EC9E6D;" d="M352,429.75h-0.58c-1.229-0.94-2.77-1.5-4.439-1.5c-1.671,0-3.2,0.56-4.44,1.5h-0.29l-0.5-5.63
			l-0.12-1.3l-4.75-53.22l0.061-0.01c3.819-0.58,7.31-1.08,10.25-1.47l4.14,53.1l0.12,1.5L352,429.75z"/>
		<path style="fill:#EC9E6D;" d="M299.51,437.96h-0.58c-1.23-0.95-2.77-1.5-4.44-1.5c-1.67,0-3.2,0.55-4.44,1.5h-0.29l-0.5-5.63
			l-0.09-0.94l-0.03-0.359l-4.71-52.82l10.28-1.8l4.13,53.02l0.03,0.37l0.01,0.09l0.08,1.03L299.51,437.96z"/>
		<path style="fill:#D36175;" d="M354.35,435.62c0,4.08-3.3,7.38-7.369,7.38c-4.08,0-7.381-3.3-7.381-7.38
			c0-2.41,1.15-4.54,2.94-5.87c1.24-0.94,2.77-1.5,4.44-1.5c1.67,0,3.21,0.56,4.439,1.5C353.2,431.09,354.35,433.22,354.35,435.62z"
			/>
		<path style="fill:#D36175;" d="M301.86,443.83c0,4.08-3.3,7.38-7.37,7.38c-4.08,0-7.38-3.3-7.38-7.38c0-2.41,1.15-4.54,2.94-5.87
			c1.24-0.95,2.77-1.5,4.44-1.5c1.67,0,3.21,0.55,4.44,1.5C300.71,439.29,301.86,441.42,301.86,443.83z"/>
	</g>
	<g>
		<path style="fill:#F5EE95;" d="M397.25,405.5c-0.05,0.59-0.48,1.61-1.17,2.93c-0.01,0.01-0.01,0.01-0.01,0.01
			c-3.74,7.15-15.42,23.71-15.42,23.71L380.39,432c-0.739-0.86-1.609-1.65-2.62-2.32c-2.239-1.489-4.76-2.17-7.14-2.09l2.72-11.83
			l2.71-11.76L358,396.25l3.38,20.97l0.37,2.28l-10.42,1.72l-4.14-53.1c4.359-0.58,7.529-0.91,8.81-0.87
			C363.5,367.5,386,394.25,397.25,405.5z"/>
		<path style="fill:#F5EE95;" d="M289.17,431.39l-4.78,0.721l-5.89,1.14l-0.71-10.66L277,410.75l-23.27,6.48l-39.82,11.09
			c0.11-0.73,0.17-1.471,0.17-2.23c0-4.56-2.07-8.64-5.33-11.35l28.09-14.5L277,379.5c0,0,2.22-0.39,5.92-1.03l1.51-0.26l4.71,52.82
			L289.17,431.39z"/>
		<path style="fill:#F5EE95;" d="M336.82,369.61v-0.01c-1.66,0.25-3.391,0.51-5.17,0.78c-10.101,1.55-21.681,3.44-31.65,5.1
			l-5.29,0.93l4.13,53.02l0.03,0.37l0.01,0.09l42.75-7.069L336.82,369.61z M319.33,392c-18.21,2.55-18.97-16.5-18.97-16.5
			c9.87-1.66,21.38-3.56,31.409-5.12C331.77,370.38,337.55,389.45,319.33,392z"/>
	</g>
	<g>
		<path style="fill:#7B4879;" d="M330.84,166.66l-87.39,20.83c0,0-5.58-25.18-3.43-27.92c2.15-2.74,83.59-21.12,84.87-20.26
			C326.17,140.17,330.84,166.66,330.84,166.66z"/>
		<path style="fill:#D36175;" d="M340,183.33c-0.17,1.5-94.49,26.66-96.33,25s-4.13-19.52-3.65-20.02s3.43-0.82,3.43-0.82
			l87.39-20.83c0,0,2.65-0.95,4.16-0.99C336.12,166.12,340.17,181.83,340,183.33z"/>
		<path style="fill:#7B4879;" d="M425.67,197.33l-53.4,12.39l-143.6,33.32l-27.87,6.46l-1.7,0.39l-3.8,0.88l-0.97,0.23l0.85-0.73
			l3.21-2.79l1.33-1.15l43.95-38c1.84,1.66,96.16-23.5,96.33-25L425.67,197.33z"/>
	</g>
	<g>
		<path style="fill:#EC9E6D;" d="M202.23,411.63c-0.94-0.19-1.91-0.29-2.9-0.29c-3.64,0-6.97,1.32-9.54,3.51l-14.24-77.93
			l14.11-3.89L202.23,411.63z"/>
		<path style="fill:#EC9E6D;" d="M233.2,572.7h-9.5l-29.32-132.71c1.55,0.55,3.21,0.85,4.95,0.85c2.64,0,5.12-0.7,7.27-1.91
			L233.2,572.7z"/>
		<path style="fill:#D36175;" d="M193.33,332.02l-3.67,1.01l-14.11,3.89l-2.72,0.75l-3.9-21.31c4.85-0.59,9.91-1.61,14.73-3.01
			c1.29-0.38,2.57-0.78,3.82-1.22L193.33,332.02z"/>
		<g>
			<path style="fill:#7B4879;" d="M201.93,259.86l-2.32-8.17l0.03-0.01C200.42,254.35,201.19,257.1,201.93,259.86z"/>
			<path style="fill:#7B4879;" d="M208.18,296.24c-2.26,7.07-10.64,12.4-20.7,15.89c-1.25,0.44-2.53,0.84-3.82,1.22
				c-4.82,1.4-9.88,2.42-14.73,3.01c-1.33,0.17-2.65,0.3-3.94,0.4c-10.26,0.82-18.98-0.32-21.57-3.52
				c-6.99-8.62-12.34-73.07-9.98-73.47c2.35-0.4,14.11,62.13,17.35,65.34c3.24,3.21,15.8,0.42,17.93-2.66
				c2.13-3.09-12.73-71.76-8.54-72.09c4.19-0.32,16.1,66.56,20.5,69.08c4.4,2.51,15.76-1.83,18.59-9.72
				c1.46-4.06-1.8-20.48-4.9-35.62c-0.09-0.46-0.19-0.92-0.28-1.38c-2.68-13.09-5.32-26.1-4.04-26.65
				c1.11-0.47,4.65,9.14,8.34,21.41l-3.21,2.79l-0.85,0.73l0.97-0.23l3.8-0.88l0.51,1.8l2.32,8.17
				C206.46,276.6,210.08,293.78,208.18,296.24z"/>
		</g>
	</g>
	<g>
		<path style="fill:#7B4879;" d="M270,309.15c0,3.03-2.46,5.5-5.5,5.5s-5.5-2.47-5.5-5.5c0-3.04,2.46-5.5,5.5-5.5
			S270,306.11,270,309.15z"/>
		<path style="fill:#7B4879;" d="M360.17,299.17c0.03,2.79-0.96,5.21-3.75,6c-2.88,0.62-6.34-0.71-7.29-3.96
			c-1.17-4.23,2.68-6.34,3.54-6.59C356.5,293.5,359.67,295.33,360.17,299.17z"/>
		<path style="fill:none;" d="M314.83,356.83c-32.64,4.48-46.83-5.52-52.33-22.83c0,0,67.83-9,95.41-15.33
			C358.67,334.33,348.85,352.17,314.83,356.83z"/>
	</g>
	<g>
		<path style="fill:#D36175;" d="M417.33,325.67C410,331,400.67,336,400.67,336l-13.37-59.45l-15.03-66.83l-143.6,33.32L227,332.02
			c0,0-10.17-5.19-21-4.02c-3.33,2.67,1.33,29.16,17.33,33.41c-9.66,27.92,11.34,35.92,11.34,35.92s0.78,1.12,2.17,2.91L277,379.5
			c0,0,2.22-0.39,5.92-1.03l1.51-0.26l10.28-1.8l5.29-0.93c9.97-1.66,21.55-3.55,31.65-5.1c1.779-0.27,3.51-0.53,5.17-0.78v0.01
			c0.02,0,0.04-0.01,0.06-0.01l0.061-0.01c3.819-0.58,7.31-1.08,10.25-1.47c4.359-0.58,7.529-0.91,8.81-0.87
			c7.5,0.25,30,27,41.25,38.25c-0.05,0.59-0.48,1.61-1.17,2.93c14.07-7.48,23.59-20.98,10.88-45.06
			C406.96,363.37,421,353.33,417.33,325.67z M310.22,370.38c-45.72,3.48-71.91-24.88-71.91-55.27c7.18-9.23,14.7-22.78,8.02-33.49
			c14.45,7.53,57.81,17.76,83.34-45.29c3.48,27.22,22.26,36.4,37.45,39.31c0.41,8.2,4.32,13.4,8.38,16.61
			C380.25,335.5,368.5,364.38,310.22,370.38z"/>
		<path style="fill:#D36175;" d="M376.06,404l-2.71,11.76c-3.979,0.71-9.09,1.24-11.97,1.46L358,396.25L376.06,404z"/>
		<path style="fill:#D36175;" d="M277.79,422.59c-7.66,3.36-16.81-0.03-24.06-5.36l23.27-6.48L277.79,422.59z"/>
	</g>
	<g>
		<path style="fill:#FDECE5;" d="M375.5,292.25c-4.06-3.21-7.97-8.41-8.38-16.61c-15.19-2.91-33.97-12.09-37.45-39.31
			c-25.53,63.05-68.89,52.82-83.34,45.29c6.68,10.71-0.84,24.26-8.02,33.49c0,30.39,26.19,58.75,71.91,55.27
			C368.5,364.38,380.25,335.5,375.5,292.25z M259,309.15c0-3.04,2.46-5.5,5.5-5.5s5.5,2.46,5.5,5.5c0,3.03-2.46,5.5-5.5,5.5
			S259,312.18,259,309.15z M314.83,356.83c-32.64,4.48-46.83-5.52-52.33-22.83c0,0,67.83-9,95.41-15.33
			C358.67,334.33,348.85,352.17,314.83,356.83z M356.42,305.17c-2.88,0.62-6.34-0.71-7.29-3.96c-1.17-4.23,2.68-6.34,3.54-6.59
			c3.83-1.12,7,0.71,7.5,4.55C360.2,301.96,359.21,304.38,356.42,305.17z"/>
		<path style="fill:#FDECE5;" d="M319.33,392c-18.21,2.55-18.97-16.5-18.97-16.5c9.87-1.66,21.38-3.56,31.409-5.12
			C331.77,370.38,337.55,389.45,319.33,392z"/>
		<path style="fill:#FDECE5;" d="M366.87,516.08l-23.69,9.229l-14.859-38.39c11.14-1.689,22.25-3.6,32.1-5.58L366.87,516.08z"/>
		<path style="fill:#FDECE5;" d="M312.38,489.2l-9.66,35.76l-22.8-8.88l-0.74-0.29l2.81-23.16
			C290.61,491.89,301.19,490.69,312.38,489.2z"/>
		<path style="fill:#FDECE5;" d="M214.08,426.09c0,0.76-0.06,1.5-0.17,2.23c-0.69,4.55-3.45,8.42-7.31,10.609
			c-2.15,1.21-4.63,1.91-7.27,1.91c-1.74,0-3.4-0.3-4.95-0.85c-5.71-2.04-9.8-7.49-9.8-13.9c0-4.5,2.02-8.54,5.21-11.24
			c2.57-2.19,5.9-3.51,9.54-3.51c0.99,0,1.96,0.1,2.9,0.29c2.45,0.48,4.68,1.58,6.52,3.11
			C212.01,417.45,214.08,421.53,214.08,426.09z"/>
		<path style="fill:#FDECE5;" d="M381.63,444.28c-1.75,2.62-4.7,4.05-7.87,4.13L365.69,429c1.46-0.88,3.159-1.36,4.939-1.41
			c2.38-0.08,4.9,0.601,7.14,2.09c1.011,0.67,1.881,1.46,2.62,2.32C383.46,435.6,384.11,440.57,381.63,444.28z"/>
	</g>
</g>
<g id="Calque_4">
	<path style="fill:#F5EE95;" d="M505.966,509.745c0,0,14.781-13.085,4.781-33.345c-7.055,0.749-23.805,14.973-29.532,20h-17.686
		c-5.728-5.027-22.478-19.251-29.532-20c-10,20.26,4.781,33.345,4.781,33.345l0,0c-0.825,2.621-1.281,5.504-1.281,8.53
		c0,12.082,9.75,21.875,35.75,21.875s34-9.793,34-21.875C507.247,515.249,506.791,512.366,505.966,509.745L505.966,509.745z"/>
	<g>
		<path style="fill:#F5EE95;" d="M453.127,556.4c9.24,0,8.37,9.98,6.061,12.04l6.189,0.02"/>
		<line style="fill:#F5EE95;" x1="472.837" y1="568.17" x2="472.367" y2="566.21"/>
		<path style="fill:#F5EE95;" d="M479.627,547.9v24.5h-5.76l-1.03-4.23l-1.47,4.23h-5.74l-0.17-2.7l-0.02-1.24h-0.061l0.08,1.24
			l0.04,2.7h-26.25c-0.02-0.27-0.03-0.54-0.05-0.81c0,0-26.391-17.83-18.83-39.33c-2.41,0.09-5.2-0.641-8.29-2.67
			c-5-4.131-3.42-11.32-2.13-14.301c6.38-12.33,29.25-7.949,24.97,10.341c-0.729,3.13-6.59,13.96-4.8,22.51
			c1.7,7.63,7.399,15.02,9.24,17.26c2.05-18.02,18.359-14.92,28.01-24.12c0.09-1.16,0.12-1.8,0.12-2.13h9.26c0,0-1,3.5,0,4.75
			L479.627,547.9z"/>
		<polygon style="fill:#F5EE95;" points="465.457,569.7 465.377,568.46 465.438,568.46 		"/>
	</g>
	<circle style="fill:#7B4879;" cx="490.247" cy="516.568" r="4.167"/>
	<circle style="fill:#FFFFFF;" cx="490.247" cy="516.568" r="2.693"/>
	<ellipse style="fill:#7B4879;" cx="490.247" cy="516.568" rx="0.691" ry="2.255"/>
	<circle style="fill:#7B4879;" cx="455.085" cy="516.568" r="4.167"/>
	<circle style="fill:#FFFFFF;" cx="455.085" cy="516.568" r="2.693"/>
	<ellipse style="fill:#7B4879;" cx="455.085" cy="516.568" rx="0.691" ry="2.692"/>
	<g>
		<path style="fill:none;stroke:#7B4879;stroke-miterlimit:10;" d="M471.528,529.9c0,0-0.614,2.834-2.781,2.001"/>
		<path style="fill:none;stroke:#7B4879;stroke-miterlimit:10;" d="M471.528,529.9c0,0,0.72,2.834,2.887,2.001"/>
	</g>
</g>
</svg>
