<?xml version="1.0" encoding="utf-8"?>
<!-- Generator: Adobe Illustrator 15.1.0, SVG Export Plug-In . SVG Version: 6.00 Build 0)  -->
<!DOCTYPE svg PUBLIC "-//W3C//DTD SVG 1.1//EN" "http://www.w3.org/Graphics/SVG/1.1/DTD/svg11.dtd">
<svg version="1.1" xmlns="http://www.w3.org/2000/svg" xmlns:xlink="http://www.w3.org/1999/xlink" x="0px" y="0px" width="460px"
	 height="486px" viewBox="0 0 460 486" enable-background="new 0 0 460 486" xml:space="preserve">
<g id="Calque_1">
</g>
<g id="Calque_2" display="none">
	<path display="inline" fill="none" stroke="#E30613" stroke-miterlimit="10" d="M262.84-118.34l-87.39,20.83
		c0,0-5.58-25.18-3.43-27.92c2.15-2.74,83.59-21.12,84.87-20.26C258.17-144.83,262.84-118.34,262.84-118.34z"/>
	<path display="inline" fill="none" stroke="#E30613" stroke-miterlimit="10" d="M272-101.67c-0.17,1.5-94.49,26.66-96.33,25
		s-4.13-19.52-3.65-20.02s3.43-0.82,3.43-0.82l87.39-20.83c0,0,2.65-0.95,4.16-0.99C268.12-118.88,272.17-103.17,272-101.67z"/>
	<path display="inline" fill="none" stroke="#E30613" stroke-miterlimit="10" d="M357.67-87.67l-53.4,12.39l-143.6,33.32L132.8-35.5
		l-1.7,0.39l-3.8,0.88L126.33-34l0.85-0.73l3.21-2.79l1.33-1.15l43.95-38c1.84,1.66,96.16-23.5,96.33-25L357.67-87.67z"/>
	<path display="inline" fill="none" stroke="#E30613" stroke-miterlimit="10" d="M307.5,7.25c-0.06-0.19-0.11-0.39-0.17-0.58"/>
	<path display="inline" fill="none" stroke="#E30613" stroke-miterlimit="10" d="M307.5,7.25C312.15,10.93,317,12,317,12"/>
	<path display="inline" fill="none" stroke="#E30613" stroke-miterlimit="10" d="M170.31,30.11c-4.9,6.29-9.64,10.56-9.64,10.56"/>
	<path display="inline" fill="none" stroke="#E30613" stroke-miterlimit="10" d="M299.12-9.36c11.04,2.11,20.18,0.91,20.18,0.91"/>
	<path display="inline" fill="none" stroke="#E30613" stroke-miterlimit="10" d="M178.33-3.38c-1.59-0.83-2.83-1.63-3.66-2.29"/>
	<path display="inline" fill="none" stroke="#E30613" stroke-miterlimit="10" d="M268.82,84.61c-1.62,0.25-3.311,0.5-5.051,0.77
		c-10.029,1.56-21.539,3.46-31.409,5.12"/>
	<path display="inline" fill="none" stroke="#E30613" stroke-miterlimit="10" d="M349.33,40.67C342,46,332.67,51,332.67,51
		L319.3-8.45l-15.03-66.83l-143.6,33.32L159,47.02c0,0-10.17-5.19-21-4.02c-3.33,2.67,1.33,29.16,17.33,33.41
		c-9.66,27.92,11.34,35.92,11.34,35.92s0.78,1.12,2.17,2.91L209,94.5c0,0,2.22-0.39,5.92-1.03l1.51-0.26l10.28-1.8l5.29-0.93
		c9.97-1.66,21.55-3.55,31.65-5.1c1.779-0.27,3.51-0.53,5.17-0.78v0.01c0.02,0,0.04-0.01,0.06-0.01l0.061-0.01
		c3.819-0.58,7.31-1.08,10.25-1.47c4.359-0.58,7.529-0.91,8.81-0.87c7.5,0.25,30,27,41.25,38.25c-0.05,0.59-0.48,1.61-1.17,2.93
		c14.07-7.48,23.59-20.98,10.88-45.06C338.96,78.37,353,68.33,349.33,40.67z M242.224,85.379C196.5,88.859,170.31,60.5,170.31,30.11
		c7.18-9.23,14.7-22.78,8.02-33.49c14.45,7.53,57.81,17.76,83.34-45.29c3.48,27.22,22.26,36.4,37.45,39.31
		c0.41,8.2,4.32,13.4,8.38,16.61C312.25,50.5,300.5,79.379,242.224,85.379z"/>
	<path display="inline" fill="none" stroke="#E30613" stroke-miterlimit="10" d="M308.06,119l-2.71,11.76
		c-3.979,0.71-9.088,1.239-11.968,1.459L290,111.25L308.06,119z"/>
	<path display="inline" fill="none" stroke="#E30613" stroke-miterlimit="10" d="M329.25,120.5c-0.05,0.59-0.48,1.61-1.17,2.93
		c-0.01,0.01-0.01,0.01-0.01,0.01c-3.74,7.15-15.42,23.71-15.42,23.71L312.39,147c-0.739-0.86-1.609-1.65-2.62-2.32
		c-2.239-1.489-4.76-2.17-7.14-2.09l2.72-11.83l2.71-11.76L290,111.25l3.38,20.97l0.37,2.28l-10.42,1.72l-4.14-53.1
		c4.359-0.58,7.529-0.91,8.81-0.87C295.5,82.5,318,109.25,329.25,120.5z"/>
	<path display="inline" fill="none" stroke="#E30613" stroke-miterlimit="10" d="M185.73,132.23c7.25,5.33,15.61,8.8,23.27,5.44"/>
	<path display="inline" fill="none" stroke="#E30613" stroke-miterlimit="10" d="M168.84,115.24l-28.09,14.5
		c3.26,2.71,5.33,6.79,5.33,11.35c0,0.76-0.06,1.5-0.17,2.23l39.82-11.09l23.27-6.48l1.5,22.5"/>
	<line display="inline" fill="none" stroke="#E30613" stroke-miterlimit="10" x1="268.82" y1="84.61" x2="273.63" y2="137.82"/>
	<path display="inline" fill="none" stroke="#E30613" stroke-miterlimit="10" d="M232,90.48c-0.05,0-0.1,0.01-0.15,0.02"/>
	<path display="inline" fill="none" stroke="#E30613" stroke-miterlimit="10" d="M232.36,90.501c0,0,0.761,19.052,18.974,16.499
		s12.437-21.621,12.437-21.621"/>
	<path display="inline" fill="none" stroke="#E30613" stroke-miterlimit="10" d="M286.35,150.62c0,4.08-3.3,7.38-7.369,7.38
		c-4.08,0-7.381-3.3-7.381-7.38c0-2.41,1.15-4.54,2.94-5.87c1.24-0.94,2.77-1.5,4.44-1.5c1.67,0,3.21,0.56,4.439,1.5
		C285.2,146.09,286.35,148.22,286.35,150.62z"/>
	<path display="inline" fill="none" stroke="#E30613" stroke-miterlimit="10" d="M284,144.75h-0.58c-1.229-0.94-2.77-1.5-4.439-1.5
		c-1.671,0-3.2,0.56-4.44,1.5h-0.29l-0.5-5.63l-0.12-1.3l-4.75-53.22l0.061-0.01c3.819-0.58,7.31-1.08,10.25-1.47l4.14,53.1
		l0.12,1.5L284,144.75z"/>
	<path display="inline" fill="none" stroke="#E30613" stroke-miterlimit="10" d="M233.86,158.83c0,4.08-3.3,7.38-7.37,7.38
		c-4.08,0-7.38-3.3-7.38-7.38c0-2.41,1.15-4.54,2.94-5.87c1.24-0.95,2.77-1.5,4.44-1.5c1.67,0,3.21,0.55,4.44,1.5
		C232.71,154.29,233.86,156.42,233.86,158.83z"/>
	<path display="inline" fill="none" stroke="#E30613" stroke-miterlimit="10" d="M231.51,152.96h-0.58c-1.23-0.95-2.77-1.5-4.44-1.5
		c-1.67,0-3.2,0.55-4.44,1.5h-0.29l-0.5-5.63l-0.09-0.94l-0.03-0.359l-4.71-52.82l10.28-1.8l4.13,53.02l0.03,0.37l0.01,0.09
		l0.08,1.03L231.51,152.96z"/>
	<path display="inline" fill="none" stroke="#E30613" stroke-miterlimit="10" d="M298.87,231.08l-23.69,9.229l-14.859-38.39
		c11.14-1.689,22.25-3.6,32.1-5.58L298.87,231.08z"/>
	<path display="inline" fill="none" stroke="#E30613" stroke-miterlimit="10" d="M244.38,204.2l-9.66,35.76l-22.8-8.88l-0.74-0.29
		l2.81-23.16C222.61,206.89,233.19,205.69,244.38,204.2z"/>
	<path display="inline" fill="none" stroke="#E30613" stroke-miterlimit="10" d="M324.67,287.4h-38.84l-15-45.4l4.35-1.69
		l23.69-9.229l6.63-2.58c0,0-2.17,35.07-3.5,44.5C312.33,274,324.67,287.4,324.67,287.4z"/>
	<path display="inline" fill="none" stroke="#E30613" stroke-miterlimit="10" d="M239.96,242l-15,45.4h-38.84
		c0,0,12.34-13.4,22.67-14.4c-1.33-9.43-3.5-44.5-3.5-44.5l5.89,2.29l0.74,0.29l22.8,8.88l0.891,0.35L239.96,242z"/>
	<path display="inline" fill="none" stroke="#E30613" stroke-miterlimit="10" d="M316.37,190.5c-6.04,1.93-14.4,3.92-23.95,5.84
		c-9.85,1.98-20.96,3.891-32.1,5.58c-5.36,0.82-10.721,1.58-15.94,2.28c-11.189,1.49-21.77,2.689-30.39,3.43
		c-9.43,0.82-16.52,1.09-19.49,0.62l16-60l5.89-1.14l4.78-0.721l0.09,0.94l0.5,5.63h0.29c-1.79,1.33-2.94,3.46-2.94,5.87
		c0,4.08,3.3,7.38,7.38,7.38c4.07,0,7.37-3.3,7.37-7.38c0-2.41-1.15-4.54-2.93-5.87h0.58l-0.55-7.04l-0.08-1.03l42.75-7.069
		l0.12,1.3l0.5,5.63h0.29c-1.79,1.33-2.94,3.46-2.94,5.87c0,4.08,3.301,7.38,7.381,7.38c4.069,0,7.369-3.3,7.369-7.38
		c0-2.4-1.149-4.53-2.93-5.87H284l-0.55-7.03l-0.12-1.5l10.42-1.72l0.68,1.63l3.141,7.58l0.12,0.29l8.069,19.41l5.73,13.8
		L316.37,190.5z"/>
	<path display="inline" fill="none" stroke="#E30613" stroke-miterlimit="10" d="M233.86,158.83c0,4.08-3.3,7.38-7.37,7.38
		c-4.08,0-7.38-3.3-7.38-7.38c0-2.41,1.15-4.54,2.94-5.87c1.24-0.95,2.77-1.5,4.44-1.5c1.67,0,3.21,0.55,4.44,1.5
		C232.71,154.29,233.86,156.42,233.86,158.83z"/>
	<path display="inline" fill="none" stroke="#E30613" stroke-miterlimit="10" d="M146.08,141.09c0,0.76-0.06,1.5-0.17,2.23
		c-0.69,4.55-3.45,8.42-7.31,10.609c-2.15,1.21-4.63,1.91-7.27,1.91c-1.74,0-3.4-0.3-4.95-0.85c-5.71-2.04-9.8-7.49-9.8-13.9
		c0-4.5,2.02-8.54,5.21-11.24c2.57-2.19,5.9-3.51,9.54-3.51c0.99,0,1.96,0.1,2.9,0.29c2.45,0.48,4.68,1.58,6.52,3.11
		C144.01,132.45,146.08,136.53,146.08,141.09z"/>
	<path display="inline" fill="none" stroke="#E30613" stroke-miterlimit="10" d="M134.23,126.63c-0.94-0.19-1.91-0.29-2.9-0.29
		c-3.64,0-6.97,1.32-9.54,3.51l-14.24-77.93l14.11-3.89L134.23,126.63z"/>
	<path display="inline" fill="none" stroke="#E30613" stroke-miterlimit="10" d="M165.2,287.7h-9.5l-29.32-132.71
		c1.55,0.55,3.21,0.85,4.95,0.85c2.64,0,5.12-0.7,7.27-1.91L165.2,287.7z"/>
	<path display="inline" fill="none" stroke="#E30613" stroke-miterlimit="10" d="M125.33,47.02l-3.67,1.01l-14.11,3.89l-2.72,0.75
		l-3.9-21.31c4.85-0.59,9.91-1.61,14.73-3.01c1.29-0.38,2.57-0.78,3.82-1.22L125.33,47.02z"/>
	<g display="inline">
		<path fill="none" stroke="#E30613" stroke-miterlimit="10" d="M133.93-25.14l-2.32-8.17l0.03-0.01
			C132.42-30.65,133.19-27.9,133.93-25.14z"/>
		<path fill="none" stroke="#E30613" stroke-miterlimit="10" d="M140.18,11.24c-2.26,7.07-10.64,12.4-20.7,15.89
			c-1.25,0.44-2.53,0.84-3.82,1.22c-4.82,1.4-9.88,2.42-14.73,3.01c-1.33,0.17-2.65,0.3-3.94,0.4c-10.26,0.82-18.98-0.32-21.57-3.52
			c-6.99-8.62-12.34-73.07-9.98-73.47c2.35-0.4,14.11,62.13,17.35,65.34c3.24,3.21,15.8,0.42,17.93-2.66
			c2.13-3.09-12.73-71.76-8.54-72.09c4.19-0.32,16.1,66.56,20.5,69.08c4.4,2.51,15.76-1.83,18.59-9.72
			c1.46-4.06-1.8-20.48-4.9-35.62c-0.09-0.46-0.19-0.92-0.28-1.38c-2.68-13.09-5.32-26.1-4.04-26.65c1.11-0.47,4.65,9.14,8.34,21.41
			l-3.21,2.79L126.33-34l0.97-0.23l3.8-0.88l0.51,1.8l2.32,8.17C138.46-8.4,142.08,8.78,140.18,11.24z"/>
	</g>
	<circle display="inline" fill="none" stroke="#E30613" stroke-miterlimit="10" cx="196.5" cy="24.146" r="5.5"/>
	<path display="inline" fill="none" stroke="#E30613" stroke-miterlimit="10" d="M194.5,49c0,0,67.833-9,95.406-15.333
		c0.761,15.667-9.055,33.5-43.072,38.167C214.187,76.312,200,66.312,194.5,49z"/>
	<path display="inline" fill="none" stroke="#E30613" stroke-miterlimit="10" d="M313.63,159.28c-1.75,2.62-4.7,4.05-7.87,4.13
		L297.69,144c1.46-0.88,3.159-1.36,4.939-1.41c2.38-0.08,4.9,0.601,7.14,2.09c1.011,0.67,1.881,1.46,2.62,2.32
		C315.46,150.6,316.11,155.57,313.63,159.28z"/>
	<path display="inline" fill="none" stroke="#E30613" stroke-miterlimit="10" d="M284.667,9.625c3.833-1.125,7,0.709,7.5,4.542
		c0.036,2.789-0.959,5.208-3.75,6c-2.874,0.625-6.333-0.708-7.291-3.958C279.96,11.979,283.81,9.872,284.667,9.625z"/>
</g>
<g id="tracé" display="none">
	<path display="inline" fill="none" stroke="#E30613" stroke-miterlimit="10" d="M307.5,7.25C312.15,10.93,317,12,317,12"/>
	<path display="inline" fill="none" stroke="#E30613" stroke-miterlimit="10" d="M170.31,30.11c-4.9,6.29-9.64,10.56-9.64,10.56"/>
	<path display="inline" fill="none" stroke="#E30613" stroke-miterlimit="10" d="M299.12-9.36c11.04,2.11,20.18,0.91,20.18,0.91"/>
	<path display="inline" fill="none" stroke="#E30613" stroke-miterlimit="10" d="M178.33-3.38c-1.59-0.83-2.83-1.63-3.66-2.29"/>
	<path display="inline" fill="none" stroke="#E30613" stroke-miterlimit="10" d="M268.82,84.61c-1.62,0.25-3.311,0.5-5.051,0.77"/>
	<path display="inline" fill="none" stroke="#E30613" stroke-miterlimit="10" d="M232,90.48c-0.05,0-0.1,0.01-0.15,0.02"/>
</g>
<g id="formes">
	<path fill="#7B4879" d="M276.945,366.474c-6.041,1.93-14.401,3.92-23.951,5.84c-9.85,1.98-20.96,3.891-32.1,5.58
		c-5.36,0.82-10.721,1.58-15.94,2.28c-11.189,1.49-21.77,2.689-30.39,3.43c-9.43,0.82-16.52,1.09-19.49,0.62l16-60l5.89-1.14
		l4.78-0.721l0.09,0.94l0.5,5.63h0.29c-1.79,1.33-2.94,3.46-2.94,5.87c0,4.08,3.3,7.38,7.38,7.38c4.07,0,7.37-3.3,7.37-7.38
		c0-2.41-1.15-4.54-2.93-5.87h0.58l-0.55-7.04l-0.08-1.03l42.75-7.069l0.12,1.3l0.5,5.63h0.29c-1.79,1.33-2.94,3.46-2.94,5.87
		c0,4.08,3.301,7.38,7.381,7.38c4.069,0,7.369-3.3,7.369-7.38c0-2.4-1.149-4.53-2.93-5.87h0.58l-0.55-7.03l-0.12-1.5l10.42-1.72
		l0.68,1.63l3.141,7.58l0.12,0.29l8.069,19.41l5.73,13.8L276.945,366.474z"/>
	<g>
		<path fill="#7B4879" d="M285.244,463.374h-38.84l-15-45.4l4.35-1.69l23.69-9.229l6.63-2.58c0,0-2.17,35.07-3.5,44.5
			C272.904,449.974,285.244,463.374,285.244,463.374z"/>
		<path fill="#7B4879" d="M200.534,417.974l-15,45.4h-38.84c0,0,12.34-13.4,22.67-14.4c-1.33-9.43-3.5-44.5-3.5-44.5l5.89,2.29
			l0.74,0.29l22.8,8.88l0.891,0.35L200.534,417.974z"/>
	</g>
	<g>
		<path fill="#EC9F6D" d="M244.574,320.724h-0.58c-1.229-0.94-2.77-1.5-4.439-1.5c-1.671,0-3.2,0.56-4.44,1.5h-0.29l-0.5-5.63
			l-0.12-1.3l-4.75-53.22l0.061-0.011c3.819-0.58,7.31-1.08,10.25-1.47l4.14,53.1l0.12,1.5L244.574,320.724z"/>
		<path fill="#EC9F6D" d="M192.084,328.934h-0.58c-1.23-0.95-2.77-1.5-4.44-1.5c-1.67,0-3.2,0.55-4.44,1.5h-0.29l-0.5-5.63
			l-0.09-0.94l-0.03-0.359l-4.71-52.82l10.28-1.8l4.13,53.02l0.03,0.37l0.01,0.09l0.08,1.03L192.084,328.934z"/>
		<path fill="#D36175" d="M246.924,326.594c0,4.08-3.3,7.38-7.369,7.38c-4.08,0-7.381-3.3-7.381-7.38c0-2.41,1.15-4.54,2.94-5.87
			c1.24-0.94,2.77-1.5,4.44-1.5c1.67,0,3.21,0.56,4.439,1.5C245.774,322.063,246.924,324.193,246.924,326.594z"/>
		<path fill="#D36175" d="M194.435,334.804c0,4.08-3.3,7.38-7.37,7.38c-4.08,0-7.38-3.3-7.38-7.38c0-2.41,1.15-4.54,2.94-5.87
			c1.24-0.95,2.77-1.5,4.44-1.5c1.67,0,3.21,0.55,4.44,1.5C193.284,330.264,194.435,332.394,194.435,334.804z"/>
	</g>
	<g>
		<path fill="#F6EF96" d="M289.824,296.474c-0.049,0.59-0.48,1.61-1.17,2.931c-0.01,0.01-0.01,0.01-0.01,0.01
			c-3.74,7.149-15.42,23.71-15.42,23.71l-0.26-0.15c-0.74-0.86-1.609-1.65-2.621-2.32c-2.238-1.489-4.76-2.17-7.14-2.09l2.72-11.83
			l2.711-11.76l-18.061-7.75l3.38,20.97l0.37,2.28l-10.42,1.72l-4.14-53.1c4.359-0.58,7.529-0.91,8.81-0.87
			C256.074,258.474,278.574,285.224,289.824,296.474z"/>
		<path fill="#F6EF96" d="M181.744,322.363l-4.78,0.721l-5.89,1.14l-0.71-10.66l-0.79-11.84l-23.27,6.479l-39.82,11.091
			c0.11-0.73,0.17-1.471,0.17-2.23c0-4.56-2.07-8.64-5.33-11.35l28.09-14.5l40.16-20.74c0,0,2.22-0.39,5.92-1.03l1.51-0.26
			l4.71,52.82L181.744,322.363z"/>
		<path fill="#F6EF96" d="M229.395,260.584v-0.01c-1.66,0.25-3.391,0.51-5.17,0.779c-10.101,1.551-21.681,3.439-31.65,5.1
			l-5.29,0.931l4.13,53.02l0.03,0.37l0.01,0.09l42.75-7.069L229.395,260.584z M211.904,282.974c-18.21,2.55-18.97-16.5-18.97-16.5
			c9.87-1.66,21.38-3.56,31.409-5.12C224.344,261.354,230.124,280.424,211.904,282.974z"/>
	</g>
	<g>
		<path fill="#7B4879" d="M223.414,57.634l-87.39,20.83c0,0-5.58-25.18-3.43-27.92c2.15-2.74,83.59-21.12,84.87-20.26
			C218.744,31.144,223.414,57.634,223.414,57.634z"/>
		<path fill="#D36175" d="M232.574,74.304c-0.17,1.5-94.49,26.66-96.33,25s-4.13-19.52-3.65-20.02s3.43-0.82,3.43-0.82l87.39-20.83
			c0,0,2.65-0.95,4.16-0.99C228.694,57.094,232.744,72.804,232.574,74.304z"/>
		<path fill="#7B4879" d="M318.244,88.304l-53.4,12.39l-143.6,33.32l-27.87,6.46l-1.7,0.39l-3.8,0.881l-0.97,0.229l0.85-0.729
			l3.21-2.791l1.33-1.149l43.95-38c1.84,1.66,96.16-23.5,96.33-25L318.244,88.304z"/>
	</g>
	<g>
		<path fill="#EC9F6D" d="M94.804,302.604c-0.94-0.189-1.91-0.29-2.9-0.29c-3.64,0-6.97,1.32-9.54,3.511l-14.24-77.931l14.11-3.89
			L94.804,302.604z"/>
		<path fill="#EC9F6D" d="M125.774,463.674h-9.5l-29.32-132.71c1.55,0.55,3.21,0.85,4.95,0.85c2.64,0,5.12-0.7,7.27-1.91
			L125.774,463.674z"/>
		<path fill="#D36175" d="M85.904,222.994l-3.67,1.01l-14.11,3.89l-2.72,0.75l-3.9-21.31c4.85-0.59,9.91-1.61,14.73-3.01
			c1.29-0.381,2.57-0.781,3.82-1.221L85.904,222.994z"/>
		<g>
			<path fill="#7B4879" d="M94.504,150.834l-2.32-8.17l0.03-0.01C92.994,145.324,93.764,148.074,94.504,150.834z"/>
			<path fill="#7B4879" d="M100.754,187.214c-2.26,7.069-10.64,12.399-20.7,15.89c-1.25,0.439-2.53,0.84-3.82,1.221
				c-4.82,1.399-9.88,2.42-14.73,3.01c-1.33,0.17-2.65,0.3-3.94,0.399c-10.26,0.82-18.98-0.319-21.57-3.52
				c-6.99-8.62-12.34-73.07-9.98-73.47c2.35-0.4,14.11,62.129,17.35,65.34c3.24,3.209,15.8,0.42,17.93-2.66
				c2.13-3.09-12.73-71.76-8.54-72.09c4.19-0.32,16.1,66.56,20.5,69.081c4.4,2.51,15.76-1.83,18.59-9.721
				c1.46-4.06-1.8-20.479-4.9-35.619c-0.09-0.461-0.19-0.92-0.28-1.381c-2.68-13.09-5.32-26.1-4.04-26.65
				c1.11-0.47,4.65,9.14,8.34,21.41l-3.21,2.791l-0.85,0.729l0.97-0.229l3.8-0.881l0.51,1.801l2.32,8.17
				C99.034,167.574,102.654,184.754,100.754,187.214z"/>
		</g>
	</g>
	<g>
		<path fill="#7B4879" d="M162.574,200.123c0,3.031-2.46,5.5-5.5,5.5s-5.5-2.469-5.5-5.5c0-3.039,2.46-5.5,5.5-5.5
			S162.574,197.084,162.574,200.123z"/>
		<path fill="#7B4879" d="M252.744,190.144c0.03,2.79-0.96,5.21-3.75,6c-2.88,0.62-6.34-0.71-7.29-3.96
			c-1.17-4.23,2.68-6.34,3.54-6.59C249.074,184.474,252.244,186.304,252.744,190.144z"/>
		<path fill="none" d="M207.404,247.804c-32.64,4.479-46.83-5.521-52.33-22.83c0,0,67.83-9,95.41-15.33
			C251.244,225.304,241.424,243.144,207.404,247.804z"/>
	</g>
	<g>
		<path fill="#D36175" d="M309.904,216.644c-7.33,5.33-16.66,10.33-16.66,10.33l-13.369-59.45l-15.031-66.83l-143.6,33.32
			l-1.67,88.98c0,0-10.17-5.19-21-4.021c-3.33,2.67,1.33,29.16,17.33,33.41c-9.66,27.92,11.34,35.92,11.34,35.92
			s0.78,1.12,2.17,2.91l40.16-20.74c0,0,2.22-0.39,5.92-1.03l1.51-0.26l10.28-1.8l5.29-0.931c9.97-1.66,21.55-3.549,31.65-5.1
			c1.779-0.27,3.51-0.529,5.17-0.779v0.01c0.02,0,0.04-0.01,0.06-0.01l0.061-0.011c3.819-0.58,7.31-1.08,10.25-1.47
			c4.359-0.58,7.529-0.91,8.81-0.87c7.5,0.25,30,27,41.25,38.25c-0.049,0.59-0.48,1.61-1.17,2.931
			c14.07-7.48,23.59-20.98,10.881-45.061C299.535,254.344,313.574,244.304,309.904,216.644z M202.794,261.354
			c-45.72,3.48-71.91-24.88-71.91-55.27c7.18-9.23,14.7-22.78,8.02-33.49c14.45,7.529,57.81,17.76,83.34-45.29
			c3.48,27.22,22.26,36.399,37.45,39.31c0.41,8.2,4.32,13.4,8.38,16.61C272.824,226.474,261.074,255.354,202.794,261.354z"/>
		<path fill="#D36175" d="M268.635,294.974l-2.711,11.76c-3.979,0.71-9.09,1.24-11.97,1.46l-3.38-20.97L268.635,294.974z"/>
		<path fill="#D36175" d="M170.364,313.563c-7.66,3.36-16.81-0.03-24.06-5.36l23.27-6.479L170.364,313.563z"/>
	</g>
	<g>
		<path fill="#FEEDE6" d="M268.074,183.224c-4.06-3.21-7.97-8.41-8.38-16.61c-15.19-2.91-33.97-12.09-37.45-39.31
			c-25.53,63.05-68.89,52.819-83.34,45.29c6.68,10.71-0.84,24.26-8.02,33.49c0,30.39,26.19,58.75,71.91,55.27
			C261.074,255.354,272.824,226.474,268.074,183.224z M151.574,200.123c0-3.039,2.46-5.5,5.5-5.5s5.5,2.461,5.5,5.5
			c0,3.031-2.46,5.5-5.5,5.5S151.574,203.154,151.574,200.123z M207.404,247.804c-32.64,4.479-46.83-5.521-52.33-22.83
			c0,0,67.83-9,95.41-15.33C251.244,225.304,241.424,243.144,207.404,247.804z M248.994,196.144c-2.88,0.62-6.34-0.71-7.29-3.96
			c-1.17-4.23,2.68-6.34,3.54-6.59c3.83-1.12,7,0.71,7.5,4.55C252.774,192.934,251.784,195.354,248.994,196.144z"/>
		<path fill="#FEEDE6" d="M211.904,282.974c-18.21,2.55-18.97-16.5-18.97-16.5c9.87-1.66,21.38-3.56,31.409-5.12
			C224.344,261.354,230.124,280.424,211.904,282.974z"/>
		<path fill="#FEEDE6" d="M259.444,407.054l-23.69,9.229l-14.859-38.39c11.14-1.689,22.25-3.6,32.1-5.58L259.444,407.054z"/>
		<path fill="#FEEDE6" d="M204.954,380.174l-9.66,35.76l-22.8-8.88l-0.74-0.29l2.81-23.16
			C183.184,382.863,193.765,381.664,204.954,380.174z"/>
		<path fill="#FEEDE6" d="M106.654,317.063c0,0.76-0.06,1.5-0.17,2.23c-0.69,4.55-3.45,8.42-7.31,10.609
			c-2.15,1.21-4.63,1.91-7.27,1.91c-1.74,0-3.4-0.3-4.95-0.85c-5.71-2.04-9.8-7.49-9.8-13.9c0-4.5,2.02-8.54,5.21-11.239
			c2.57-2.19,5.9-3.511,9.54-3.511c0.99,0,1.96,0.101,2.9,0.29c2.45,0.48,4.68,1.58,6.52,3.11
			C104.584,308.424,106.654,312.504,106.654,317.063z"/>
		<path fill="#FEEDE6" d="M274.205,335.254c-1.75,2.62-4.701,4.05-7.871,4.13l-8.069-19.41c1.46-0.88,3.159-1.36,4.939-1.41
			c2.38-0.08,4.901,0.601,7.14,2.09c1.012,0.67,1.881,1.46,2.621,2.32C276.035,326.573,276.686,331.544,274.205,335.254z"/>
	</g>
	<g id="Calque_4">
		<path fill="#7C497A" d="M415.564,400.629c0,0,14.779-13.086,4.779-33.346c-7.055,0.75-23.805,14.973-29.531,20h-17.686
			c-5.729-5.027-22.479-19.25-29.533-20c-10,20.26,4.781,33.346,4.781,33.346l0,0c-0.824,2.621-1.281,5.504-1.281,8.529
			c0,12.082,9.75,21.875,35.75,21.875s34-9.793,34-21.875C416.844,406.133,416.389,403.25,415.564,400.629L415.564,400.629z"/>
		<g>
			<path fill="#7C497A" d="M362.725,447.283c9.24,0,8.369,9.98,6.061,12.041l6.189,0.02"/>
			<line fill="#7C497A" x1="382.436" y1="459.053" x2="381.965" y2="457.094"/>
			<path fill="#7C497A" d="M389.225,438.783v24.5h-5.76l-1.029-4.23l-1.471,4.23h-5.74l-0.17-2.699l-0.02-1.24h-0.061l0.078,1.24
				l0.041,2.699h-26.25c-0.02-0.27-0.029-0.539-0.051-0.811c0,0-26.391-17.83-18.83-39.33c-2.41,0.09-5.199-0.641-8.289-2.67
				c-5-4.131-3.42-11.32-2.131-14.301c6.381-12.33,29.25-7.949,24.971,10.342c-0.729,3.129-6.59,13.959-4.801,22.51
				c1.701,7.629,7.4,15.02,9.24,17.26c2.051-18.02,18.359-14.92,28.01-24.119c0.09-1.16,0.121-1.801,0.121-2.131h9.26
				c0,0-1,3.5,0,4.75L389.225,438.783z"/>
			<polygon fill="#7C497A" points="375.055,460.584 374.975,459.344 375.035,459.344 			"/>
		</g>
		<circle fill="#7C497A" cx="399.844" cy="407.452" r="4.167"/>
		<circle fill="#FFFFFF" cx="399.844" cy="407.451" r="2.693"/>
		<ellipse fill="#7C497A" cx="399.844" cy="407.451" rx="0.691" ry="2.256"/>
		<circle fill="#7C497A" cx="364.684" cy="407.452" r="4.167"/>
		<circle fill="#FFFFFF" cx="364.684" cy="407.451" r="2.693"/>
		<ellipse fill="#7C497A" cx="364.684" cy="407.451" rx="0.689" ry="2.691"/>
		<g>
			<path fill="#FFFFFF" d="M381.125,420.783c0,0-0.613,2.834-2.781,2.002"/>
			<path fill="#FFFFFF" d="M381.125,420.783c0,0,0.721,2.834,2.887,2.002"/>
		</g>
	</g>
</g>
</svg>
